<?xml version="1.0" standalone="no"?><!DOCTYPE svg PUBLIC "-//W3C//DTD SVG 1.1//EN" "http://www.w3.org/Graphics/SVG/1.1/DTD/svg11.dtd"><svg t="1706945755764" class="icon" viewBox="0 0 1024 1024" version="1.1" xmlns="http://www.w3.org/2000/svg" p-id="7113" xmlns:xlink="http://www.w3.org/1999/xlink" width="200" height="200"><path d="M1016.512 392.512c-11.936 47.136-38.848 85.344-80.704 114.816-40.544 28.544-86.88 43.008-139.04 43.776v0.544h-63.744v-1.76H640.96l47.936-198.432h102.688l-28.416 120.96h33.6c61.376 0 100.768-34.912 111.744-79.872 8.608-35.232-7.392-55.776-47.232-61.984v-8.288h-165.344l6.144-25.408-228.256 302.688c11.968-0.16 23.904-0.352 36.096-0.352 281.632 0 509.92 42.56 509.92 95.104s-228.32 95.104-509.92 95.104C228.288 789.408 0 746.816 0 694.304c0-49.216 200.576-89.728 457.632-94.592L373.824 313.92h-9.312c10.24 22.4 12.352 48.608 6.272 78.624-9.568 47.136-34.592 85.344-74.976 114.816-40.192 29.312-87.2 43.936-141.12 43.936-1.152 0-5.088-0.096-11.264-0.288v0.672H95.616v-1.76H3.104l38.176-198.432h102.528l-22.368 120.96h37.888c61.376 0 94.72-34.912 103.456-79.872 7.328-37.6-12.192-58.72-58.432-63.264v-7.008H46.88l16.864-87.584h382.464l47.808 206.048 143.424-206.048h223.104c63.52 0 100.416 16.128 129.92 44.576 29.376 28.32 37.984 66.144 26.08 113.28z m-634.048 301.76c0 26.272 57.088 47.552 127.488 47.552s127.488-21.28 127.488-47.552-57.088-47.552-127.488-47.552-127.488 21.28-127.488 47.552z" fill="#1296db" p-id="7114"></path></svg>