<?xml version="1.0" standalone="no"?><!DOCTYPE svg PUBLIC "-//W3C//DTD SVG 1.1//EN" "http://www.w3.org/Graphics/SVG/1.1/DTD/svg11.dtd"><svg t="1706776721153" class="icon" viewBox="0 0 1024 1024" version="1.1" xmlns="http://www.w3.org/2000/svg" p-id="1949" xmlns:xlink="http://www.w3.org/1999/xlink" width="200" height="200"><path d="M857.6 563.2a347.2 347.2 0 0 0 0-173.76 100.48 100.48 0 1 0-100.8-173.76 356.8 356.8 0 0 0-145.28-83.84 100.48 100.48 0 0 0-200.64 0 356.8 356.8 0 0 0-144 83.2 100.48 100.48 0 0 0-101.12 173.76 347.84 347.84 0 0 0 0 169.6 100.48 100.48 0 0 0 100.8 173.76 359.68 359.68 0 0 0 96 64L288 974.72a16 16 0 0 0 14.72 22.08h422.4a16 16 0 0 0 14.72-22.08l-74.24-178.88A359.68 359.68 0 0 0 754.24 736 100.48 100.48 0 0 0 896 600.32a99.84 99.84 0 0 0-38.4-37.12zM808 217.6a84.8 84.8 0 0 1 84.8 84.8h-169.6a84.8 84.8 0 0 1 84.8-84.8z m-294.4 512a84.8 84.8 0 0 1 84.8 84.8h-169.6a84.8 84.8 0 0 1 84.8-84.16z m-87.36 35.2a101.44 101.44 0 0 0-8.64 19.2c-4.8 0-9.92-2.24-14.72-4.16l93.12-224v160h-8.32a100.16 100.16 0 0 0-61.44 48.96z m137.92-36.8a99.84 99.84 0 0 0-36.16-12.48v-167.36l96 230.72-14.72 4.8a100.16 100.16 0 0 0-45.12-56z m272.96-253.76a320 320 0 0 1-9.6 78.08 99.2 99.2 0 0 0-69.76 11.2 100.8 100.8 0 0 0-23.68 19.52L544 473.28l186.24-107.52a99.84 99.84 0 0 0 98.24 35.52 320 320 0 0 1 8.64 72.96zM608 164.48a324.16 324.16 0 0 1 123.2 71.68 98.24 98.24 0 0 0-18.56 102.08l-184.64 107.52V238.72a99.84 99.84 0 0 0 71.36-48.32 99.52 99.52 0 0 0 8.64-25.92z m-96-109.44a84.8 84.8 0 0 1 84.8 84.8h-169.6A84.8 84.8 0 0 1 512 55.04z m-97.6 109.76a100.16 100.16 0 0 0 47.04 62.4 98.88 98.88 0 0 0 34.56 11.52v207.04l-184.96-106.88a100.8 100.8 0 0 0 3.84-10.24 100.8 100.8 0 0 0-22.08-93.44 324.16 324.16 0 0 1 121.6-70.4zM480 473.28l-185.28 107.2a98.88 98.88 0 0 0-99.2-34.56 312 312 0 0 1 0-145.28 101.12 101.12 0 0 0 21.76 2.88 99.84 99.84 0 0 0 77.44-36.8zM132.48 302.4a84.8 84.8 0 1 1 169.92 0z m0 341.76a84.8 84.8 0 1 1 169.92 0z m160 67.52A98.88 98.88 0 0 0 311.04 608L480 510.08 373.44 768a326.4 326.4 0 0 1-81.6-56z m409.6 253.12H326.08l64-155.52c7.36 2.56 14.72 4.8 22.4 7.04a100.8 100.8 0 0 0 187.84 48.96 99.84 99.84 0 0 0 13.12-49.92c7.36-2.24 14.72-4.48 22.08-7.04z m-48-198.4L547.84 512l168.32 96a101.44 101.44 0 0 0-5.76 15.04 100.16 100.16 0 0 0 10.24 76.48 98.24 98.24 0 0 0 9.92 12.8 326.72 326.72 0 0 1-77.12 54.08z m69.76-115.52a84.8 84.8 0 0 1 169.92 0z" fill="#DD684F" p-id="1950"></path></svg>